<?xml version="1.0" encoding="UTF-8" standalone="no"?>
<!DOCTYPE svg PUBLIC "-//W3C//DTD SVG 1.0//EN" "http://www.w3.org/TR/2001/PR-SVG-20010719/DTD/svg10.dtd">
<svg width="40cm" height="34cm" viewBox="54 25 783 669" xmlns="http://www.w3.org/2000/svg" xmlns:xlink="http://www.w3.org/1999/xlink">
  <g>
    <path style="fill: #b7b79d" d="M 436.897 214.134 L 545.91,214.134 L 545.91,234.281 L 436.897,234.281 L 436.897,214.134z"/>
    <path style="fill: none; fill-opacity:0; stroke-width: 0.02; stroke: #494936" d="M 436.897 214.134 L 545.91,214.134 L 545.91,234.281 L 436.897,234.281 L 436.897,214.134"/>
    <path style="fill: #c9c9b6" d="M 436.897 214.134 L 448.456,203.176 L 557.469,203.176 L 545.91,214.134 L 436.897,214.134z"/>
    <path style="fill: none; fill-opacity:0; stroke-width: 0.02; stroke: #494936" d="M 436.897 214.134 L 448.456,203.176 L 557.469,203.176 L 545.91,214.134 L 436.897,214.134"/>
    <path style="fill: none; fill-opacity:0; stroke-width: 2.12; stroke: #000000" d="M 539.813 223.305 L 513.654,223.305"/>
    <path style="fill: #7a7a5a" d="M 545.91 234.281 L 557.469,222.687 L 557.469,203.176 L 545.91,214.134 L 545.91,234.281z"/>
    <path style="fill: none; fill-opacity:0; stroke-width: 0.02; stroke: #494936" d="M 545.91 234.281 L 557.469,222.687 L 557.469,203.176 L 545.91,214.134 L 545.91,234.281"/>
    <path style="fill: #c9c9b6" d="M 437.515 247.059 L 449.675,231.825 L 533.733,231.825 L 521.572,247.059 L 437.515,247.059z"/>
    <path style="fill: none; fill-opacity:0; stroke-width: 0.02; stroke: #494936" d="M 437.515 247.059 L 449.675,231.825 L 533.733,231.825 L 521.572,247.059 L 437.515,247.059"/>
    <path style="fill: #7a7a5a" d="M 521.572 250.099 L 533.733,237.321 L 533.733,231.825 L 521.572,247.059 L 521.572,250.099z"/>
    <path style="fill: none; fill-opacity:0; stroke-width: 0.02; stroke: #494936" d="M 521.572 250.099 L 533.733,237.321 L 533.733,231.825 L 521.572,247.059 L 521.572,250.099"/>
    <path style="fill: #b7b79d" d="M 437.515 247.059 L 521.572,247.059 L 521.572,250.099 L 437.515,250.099 L 437.515,247.059z"/>
    <path style="fill: none; fill-opacity:0; stroke-width: 0.02; stroke: #494936" d="M 437.515 247.059 L 521.572,247.059 L 521.572,250.099 L 437.515,250.099 L 437.515,247.059"/>
    <path style="fill: #000000" d="M 453.334 211.712 L 462.488,203.176 L 539.813,203.176 L 531.311,211.712 L 453.334,211.712z"/>
    <path style="fill: none; fill-opacity:0; stroke-width: 0.02; stroke: #000000" d="M 453.334 211.712 L 462.488,203.176 L 539.813,203.176 L 531.311,211.712 L 453.334,211.712"/>
    <path style="fill: #c9c9b6" d="M 452.715 148.918 L 461.269,141 L 538.628,141 L 530.074,148.918 L 452.715,148.918z"/>
    <path style="fill: none; fill-opacity:0; stroke-width: 0.02; stroke: #494936" d="M 452.715 148.918 L 461.269,141 L 538.628,141 L 530.074,148.918 L 452.715,148.918"/>
    <path style="fill: #b7b79d" d="M 452.715 148.918 L 530.693,148.918 L 530.693,210.475 L 452.715,210.475 L 452.715,148.918z"/>
    <path style="fill: none; fill-opacity:0; stroke-width: 0.02; stroke: #494936" d="M 452.715 148.918 L 530.658,148.918 L 530.658,210.458 L 452.715,210.458 L 452.715,148.918"/>
    <path style="fill: #ffffff" d="M 459.414 156.819 L 523.977,156.819 L 523.977,204.378 L 459.414,204.378 L 459.414,156.819z"/>
    <path style="fill: none; fill-opacity:0; stroke-width: 0.02; stroke: #494936" d="M 459.414 156.819 L 523.977,156.819 L 523.977,204.361 L 459.414,204.361 L 459.414,156.819"/>
    <path style="fill: #7a7a5a" d="M 530.074 209.891 L 538.628,201.355 L 538.628,141 L 530.074,148.918 L 530.074,209.891z"/>
    <path style="fill: none; fill-opacity:0; stroke-width: 0.02; stroke: #494936" d="M 530.074 209.891 L 538.628,201.355 L 538.628,141 L 530.074,148.918 L 530.074,209.891"/>
  </g>
  <g>
    <path style="fill: #626248" d="M 760.477 436.076 L 766.966,436.076 L 766.966,447.481 L 760.477,447.481 L 760.477,436.076z"/>
    <path style="fill: none; fill-opacity:0; stroke-width: 0.38; stroke: #494936" d="M 760.477 436.076 L 766.946,436.076 L 766.946,447.441 L 760.477,447.441 L 760.477,436.076"/>
    <path style="fill: #626248" d="M 734.148 436.823 L 731.494,435.289 L 731.494,546.996 L 734.148,552.698 L 734.148,436.823z"/>
    <path style="fill: none; fill-opacity:0; stroke-width: 0.38; stroke: #494936" d="M 734.148 436.823 L 731.494,435.289 L 731.494,546.996 L 734.148,552.698 L 734.148,436.823"/>
    <path style="fill: #7a7a5a" d="M 769.975 519.644 L 737.216,520.391 L 739.87,550.417 L 769.975,545.088 L 769.975,519.644z"/>
    <path style="fill: none; fill-opacity:0; stroke-width: 0.38; stroke: #494936" d="M 769.975 519.644 L 737.216,520.391 L 739.87,550.417 L 769.975,545.088 L 769.975,519.644"/>
    <path style="fill: #a5a585" d="M 742.938 510.914 L 755.109,513.195 L 770.387,519.644 L 739.103,523.832 L 742.938,510.914z"/>
    <path style="fill: #a5a585" d="M 742.938 510.914 L 755.109,513.195 L 770.387,519.644 L 739.103,523.832 L 742.938,510.914z"/>
    <path style="fill: none; fill-opacity:0; stroke-width: 0.38; stroke: #494936" d="M 742.938 510.914 L 755.109,513.195 L 770.387,519.644 L 739.103,523.832"/>
    <path style="fill: #a5a585" d="M 684.971 442.152 L 700.21,442.152 L 700.21,530.282 L 684.971,530.282 L 684.971,442.152z"/>
    <path style="fill: none; fill-opacity:0; stroke-width: 0.38; stroke: #494936" d="M 684.971 442.152 L 700.17,442.152 L 700.17,530.282 L 684.971,530.282 L 684.971,442.152"/>
    <path style="fill: #c9c9b6" d="M 672.74 440.244 L 685.305,440.244 L 685.305,530.282 L 672.74,530.282 L 672.74,440.244z"/>
    <path style="fill: none; fill-opacity:0; stroke-width: 0.38; stroke: #494936" d="M 672.74 440.244 L 685.305,440.244 L 685.305,530.262 L 672.74,530.262 L 672.74,440.244"/>
    <path style="fill: #93936c" d="M 697.555 537.105 L 697.555,565.99 L 672.74,562.175 L 672.74,534.097 L 697.555,537.105z"/>
    <path style="fill: none; fill-opacity:0; stroke-width: 0.38; stroke: #494936" d="M 697.555 537.105 L 697.555,565.99 L 672.74,562.175 L 672.74,534.097 L 697.555,537.105"/>
    <path style="fill: #a5a585" d="M 672.74 531.816 L 672.74,562.175 L 653.687,553.071 L 653.687,524.973 L 673.507,531.816 L 672.74,531.816z"/>
    <path style="fill: #a5a585" d="M 672.74 531.816 L 672.74,562.175 L 653.687,553.071 L 653.687,524.973 L 673.507,531.816 L 672.74,531.816z"/>
    <path style="fill: none; fill-opacity:0; stroke-width: 0.38; stroke: #494936" d="M 672.74 531.816 L 672.74,562.175 L 653.687,553.071 L 653.687,524.973 L 673.507,531.816"/>
    <path style="fill: #93936c" d="M 653.687 524.973 L 653.687,553.071 L 651.013,547.369 L 651.013,520.018 L 653.687,524.973z"/>
    <path style="fill: none; fill-opacity:0; stroke-width: 0.38; stroke: #494936" d="M 653.687 524.973 L 653.687,553.071 L 651.426,548.254"/>
    <path style="fill: none; fill-opacity:0; stroke-width: 0.38; stroke: #494936" d="M 651.426 520.785 L 653.687,524.973"/>
    <path style="fill: #c9c9b6" d="M 660.923 509.38 L 668.552,506.745 L 670.853,516.203 L 654.434,513.568 L 660.923,509.38z"/>
    <path style="fill: none; fill-opacity:0; stroke-width: 0.38; stroke: #494936" d="M 660.923 509.38 L 668.552,506.745 L 670.853,516.203 L 654.434,513.568 L 660.923,509.38"/>
    <path style="fill: #a5a585" d="M 667.785 437.59 L 673.114,437.59 L 673.114,526.467 L 667.785,526.467 L 667.785,437.59z"/>
    <path style="fill: none; fill-opacity:0; stroke-width: 0.38; stroke: #494936" d="M 667.785 437.59 L 673.114,437.59 L 673.114,526.467 L 667.785,526.467 L 667.785,437.59"/>
    <path style="fill: #b7b79d" d="M 651.013 520.018 L 651.78,516.203 L 654.434,513.568 L 667.785,514.335 L 667.785,515.849 L 672.74,518.523 L 653.687,524.973 L 651.013,520.018z"/>
    <path style="fill: none; fill-opacity:0; stroke-width: 0.38; stroke: #494936" d="M 651.426 517.973 L 651.78,516.203 L 654.434,513.568 L 667.785,514.335 L 667.785,515.849 L 672.74,518.523 L 653.687,524.973 L 651.426,520.785"/>
    <path style="fill: #c9c9b6" d="M 653.687 524.973 L 672.74,518.523 L 684.971,521.551 L 672.74,534.097 L 653.687,524.973z"/>
    <path style="fill: none; fill-opacity:0; stroke-width: 0.38; stroke: #494936" d="M 653.687 524.973 L 672.74,518.523 L 684.971,521.551 L 672.74,534.097 L 653.687,524.973"/>
    <path style="fill: #93936c" d="M 720.03 432.674 L 731.848,432.674 L 731.848,444.433 L 720.03,444.433 L 720.03,432.674z"/>
    <path style="fill: none; fill-opacity:0; stroke-width: 0.38; stroke: #494936" d="M 720.03 432.674 L 731.848,432.674 L 731.848,444.413 L 720.03,444.413 L 720.03,432.674"/>
    <path style="fill: #626248" d="M 707.819 432.674 L 720.404,432.674 L 720.404,444.433 L 707.819,444.433 L 707.819,432.674z"/>
    <path style="fill: none; fill-opacity:0; stroke-width: 0.38; stroke: #494936" d="M 707.819 432.674 L 720.404,432.674 L 720.404,444.413 L 707.819,444.413 L 707.819,432.674"/>
    <path style="fill: #93936c" d="M 697.555 432.674 L 708.213,432.674 L 708.213,443.646 L 697.555,443.646 L 697.555,432.674z"/>
    <path style="fill: none; fill-opacity:0; stroke-width: 0.38; stroke: #494936" d="M 697.555 432.674 L 708.213,432.674 L 708.213,443.627 L 697.555,443.627 L 697.555,432.674"/>
    <path style="fill: #626248" d="M 692.187 432.674 L 697.929,432.674 L 697.929,443.646 L 692.187,443.646 L 692.187,432.674z"/>
    <path style="fill: none; fill-opacity:0; stroke-width: 0.38; stroke: #494936" d="M 692.187 432.674 L 697.909,432.674 L 697.909,443.627 L 692.187,443.627 L 692.187,432.674"/>
    <path style="fill: #93936c" d="M 686.092 432.674 L 692.581,432.674 L 692.581,443.646 L 686.092,443.646 L 686.092,432.674z"/>
    <path style="fill: none; fill-opacity:0; stroke-width: 0.38; stroke: #494936" d="M 686.092 432.674 L 692.541,432.674 L 692.541,443.627 L 686.092,443.627 L 686.092,432.674"/>
    <path style="fill: #b7b79d" d="M 667.785 437.59 L 669.319,435.702 L 687.625,436.823 L 688.373,438.357 L 672.74,440.992 L 667.785,437.59z"/>
    <path style="fill: none; fill-opacity:0; stroke-width: 0.38; stroke: #494936" d="M 667.785 437.59 L 669.319,435.702 L 687.625,436.823 L 688.373,438.357 L 672.74,440.992 L 667.785,437.59"/>
    <path style="fill: #dbdbce" d="M 672.74 440.992 L 688.373,438.357 L 692.581,439.497 L 684.971,444.059 L 672.74,440.992z"/>
    <path style="fill: none; fill-opacity:0; stroke-width: 0.38; stroke: #494936" d="M 672.74 440.992 L 688.373,438.357 L 692.581,439.497 L 684.971,444.059 L 672.74,440.992"/>
    <path style="fill: #b7b79d" d="M 707.819 430 L 707.819,433.795 L 720.03,433.795 L 721.584,430.354 L 707.819,430z"/>
    <path style="fill: none; fill-opacity:0; stroke-width: 0.38; stroke: #494936" d="M 707.819 430 L 707.819,433.795 L 720.03,433.795 L 721.584,430.354 L 707.819,430"/>
    <path style="fill: #dbdbce" d="M 707.819 430 L 707.819,433.795 L 697.555,434.169 L 695.982,430.354 L 707.819,430z"/>
    <path style="fill: none; fill-opacity:0; stroke-width: 0.38; stroke: #494936" d="M 707.819 430 L 707.819,433.795 L 697.555,434.169 L 695.982,430.354 L 707.819,430"/>
    <path style="fill: #b7b79d" d="M 684.971 431.14 L 692.187,435.289 L 697.555,434.169 L 695.982,430.354 L 684.971,431.14z"/>
    <path style="fill: none; fill-opacity:0; stroke-width: 0.38; stroke: #494936" d="M 684.971 431.14 L 692.187,435.289 L 697.555,434.169 L 695.982,430.354 L 684.971,431.14"/>
    <path style="fill: #dbdbce" d="M 675.041 433.048 L 669.319,435.702 L 687.625,436.823 L 692.187,435.289 L 684.971,431.514 L 675.041,433.048z"/>
    <path style="fill: none; fill-opacity:0; stroke-width: 0.38; stroke: #494936" d="M 675.041 433.048 L 669.319,435.702 L 687.625,436.823 L 692.187,435.289 L 684.971,431.514 L 675.041,433.048"/>
    <path style="fill: #7a7a5a" d="M 734.148 436.823 L 747.854,436.823 L 747.854,522.692 L 734.148,524.56 L 734.148,436.823z"/>
    <path style="fill: none; fill-opacity:0; stroke-width: 0.38; stroke: #494936" d="M 734.148 436.823 L 747.854,436.823 L 747.854,522.692 L 734.148,524.56 L 734.148,436.823"/>
    <path style="fill: #a5a585" d="M 718.516 443.273 L 737.589,443.273 L 737.589,530.655 L 718.516,530.655 L 718.516,443.273z"/>
    <path style="fill: none; fill-opacity:0; stroke-width: 0.38; stroke: #494936" d="M 718.516 443.273 L 737.57,443.273 L 737.57,530.655 L 718.516,530.655 L 718.516,443.273"/>
    <path style="fill: #93936c" d="M 722.331 537.105 L 722.331,565.99 L 746.733,560.681 L 746.733,532.563 L 722.331,537.105z"/>
    <path style="fill: none; fill-opacity:0; stroke-width: 0.38; stroke: #494936" d="M 722.331 537.105 L 722.331,565.99 L 746.733,560.681 L 746.733,532.563 L 722.331,537.105"/>
    <path style="fill: #c9c9b6" d="M 699.836 442.899 L 718.909,442.899 L 718.909,530.282 L 699.836,530.282 L 699.836,442.899z"/>
    <path style="fill: none; fill-opacity:0; stroke-width: 0.38; stroke: #494936" d="M 699.836 442.899 L 718.89,442.899 L 718.89,530.282 L 699.836,530.282 L 699.836,442.899"/>
    <path style="fill: #a5a585" d="M 697.162 537.105 L 723.098,537.105 L 723.098,566.383 L 697.162,566.383 L 697.162,537.105z"/>
    <path style="fill: none; fill-opacity:0; stroke-width: 0.38; stroke: #494936" d="M 697.162 537.105 L 723.078,537.105 L 723.078,566.344 L 697.162,566.344 L 697.162,537.105"/>
    <path style="fill: #b7b79d" d="M 684.971 444.059 L 692.581,439.497 L 702.117,440.618 L 700.21,444.806 L 684.971,444.059z"/>
    <path style="fill: none; fill-opacity:0; stroke-width: 0.38; stroke: #494936" d="M 684.971 444.059 L 692.581,439.497 L 702.117,440.618 L 700.21,444.806 L 684.971,444.059"/>
    <path style="fill: #b7b79d" d="M 718.516 444.806 L 715.842,440.618 L 730.334,439.497 L 737.216,443.273 L 718.516,444.806z"/>
    <path style="fill: none; fill-opacity:0; stroke-width: 0.38; stroke: #494936" d="M 718.516 444.806 L 715.842,440.618 L 730.334,439.497 L 737.216,443.273 L 718.516,444.806"/>
    <path style="fill: #dbdbce" d="M 718.516 444.806 L 716.216,440.618 L 702.117,440.618 L 699.836,444.806 L 718.516,444.806z"/>
    <path style="fill: none; fill-opacity:0; stroke-width: 0.38; stroke: #494936" d="M 718.516 444.806 L 716.216,440.618 L 702.117,440.618 L 699.836,444.806 L 718.516,444.806"/>
    <path style="fill: #b7b79d" d="M 672.74 534.097 L 684.971,521.551 L 700.21,523.439 L 697.162,537.105 L 672.74,534.097z"/>
    <path style="fill: none; fill-opacity:0; stroke-width: 0.38; stroke: #494936" d="M 672.74 534.097 L 684.971,521.551 L 700.21,523.439 L 697.162,537.105 L 672.74,534.097"/>
    <path style="fill: #b7b79d" d="M 722.331 537.105 L 718.516,523.439 L 737.216,519.644 L 746.733,532.563 L 722.331,537.105z"/>
    <path style="fill: none; fill-opacity:0; stroke-width: 0.38; stroke: #494936" d="M 722.331 537.105 L 718.516,523.439 L 737.216,519.644 L 746.733,532.563 L 722.331,537.105"/>
    <path style="fill: #c9c9b6" d="M 722.331 537.105 L 718.516,523.439 L 699.423,523.439 L 697.162,537.105 L 722.331,537.105z"/>
    <path style="fill: none; fill-opacity:0; stroke-width: 0.38; stroke: #494936" d="M 722.331 537.105 L 718.516,523.439 L 699.423,523.439 L 697.162,537.105 L 722.331,537.105"/>
    <path style="fill: #b7b79d" d="M 747.854 436.823 L 744.845,434.542 L 736.429,432.261 L 731.494,435.289 L 734.148,436.823 L 747.854,436.823z"/>
    <path style="fill: none; fill-opacity:0; stroke-width: 0.38; stroke: #494936" d="M 747.854 436.823 L 744.845,434.542 L 736.429,432.261 L 731.494,435.289 L 734.148,436.823 L 747.854,436.823"/>
    <path style="fill: #dbdbce" d="M 736.429 432.261 L 731.494,435.289 L 720.03,433.795 L 721.584,430.354 L 736.429,432.261z"/>
    <path style="fill: none; fill-opacity:0; stroke-width: 0.38; stroke: #494936" d="M 736.429 432.261 L 731.494,435.289 L 720.03,433.795 L 721.584,430.354 L 736.429,432.261"/>
    <path style="fill: #93936c" d="M 805.093 527.254 L 805.093,555.352 L 807.767,549.276 L 807.767,522.299 L 805.093,527.254z"/>
    <path style="fill: none; fill-opacity:0; stroke-width: 0.38; stroke: #494936" d="M 805.093 527.254 L 805.093,555.352 L 807.767,549.276 L 807.767,522.299 L 805.093,527.254"/>
    <path style="fill: #c9c9b6" d="M 797.464 511.661 L 789.834,509.026 L 787.534,518.523 L 803.952,515.849 L 797.464,511.661z"/>
    <path style="fill: none; fill-opacity:0; stroke-width: 0.38; stroke: #494936" d="M 797.464 511.661 L 789.834,509.026 L 787.534,518.523 L 803.952,515.849 L 797.464,511.661"/>
    <path style="fill: #a5a585" d="M 785.253 440.244 L 790.975,440.244 L 790.975,528.375 L 785.253,528.375 L 785.253,440.244z"/>
    <path style="fill: none; fill-opacity:0; stroke-width: 0.38; stroke: #494936" d="M 785.253 440.244 L 790.955,440.244 L 790.955,528.375 L 785.253,528.375 L 785.253,440.244"/>
    <path style="fill: #b7b79d" d="M 807.767 522.299 L 806.233,518.523 L 803.952,515.849 L 790.601,516.203 L 790.601,518.11 L 785.253,520.765 L 805.093,527.254 L 807.767,522.299z"/>
    <path style="fill: none; fill-opacity:0; stroke-width: 0.38; stroke: #494936" d="M 807.767 522.299 L 806.233,518.523 L 803.952,515.849 L 790.601,516.203 L 790.601,518.11 L 785.253,520.765 L 805.093,527.254 L 807.767,522.299"/>
    <path style="fill: #a5a585" d="M 763.505 442.152 L 776.483,442.152 L 776.483,550.79 L 763.505,550.79 L 763.505,442.152z"/>
    <path style="fill: none; fill-opacity:0; stroke-width: 0.38; stroke: #494936" d="M 763.505 442.152 L 776.483,442.152 L 776.483,550.79 L 763.505,550.79 L 763.505,442.152"/>
    <path style="fill: #c9c9b6" d="M 773.042 442.152 L 785.646,442.152 L 785.646,532.189 L 773.042,532.189 L 773.042,442.152z"/>
    <path style="fill: none; fill-opacity:0; stroke-width: 0.38; stroke: #494936" d="M 773.042 442.152 L 785.626,442.152 L 785.626,532.17 L 773.042,532.17 L 773.042,442.152"/>
    <path style="fill: #a5a585" d="M 785.253 535.984 L 785.253,564.476 L 805.093,555.352 L 805.093,527.254 L 785.253,535.984z"/>
    <path style="fill: none; fill-opacity:0; stroke-width: 0.38; stroke: #494936" d="M 785.253 535.984 L 785.253,564.476 L 805.093,555.352 L 805.093,527.254 L 785.253,535.984"/>
    <path style="fill: #c9c9b6" d="M 805.093 527.254 L 785.253,520.765 L 773.042,523.832 L 785.253,535.984 L 805.093,527.254z"/>
    <path style="fill: none; fill-opacity:0; stroke-width: 0.38; stroke: #494936" d="M 805.093 527.254 L 785.253,520.765 L 773.042,523.832 L 785.253,535.984 L 805.093,527.254"/>
    <path style="fill: #a5a585" d="M 785.253 535.984 L 773.042,523.439 L 773.042,553.819 L 785.253,564.85 L 785.253,535.984z"/>
    <path style="fill: none; fill-opacity:0; stroke-width: 0.38; stroke: #494936" d="M 785.253 535.984 L 773.042,523.439 L 773.042,553.819 L 785.253,564.85 L 785.253,535.984"/>
    <path style="fill: #93936c" d="M 773.042 523.832 L 763.505,525.346 L 763.505,555.352 L 773.042,553.819 L 773.042,523.832z"/>
    <path style="fill: none; fill-opacity:0; stroke-width: 0.38; stroke: #494936" d="M 773.042 523.832 L 763.505,525.346 L 763.505,555.352 L 773.042,553.819 L 773.042,523.832"/>
    <path style="fill: #93936c" d="M 766.199 435.702 L 775.716,435.702 L 775.716,442.525 L 766.199,442.525 L 766.199,435.702z"/>
    <path style="fill: none; fill-opacity:0; stroke-width: 0.38; stroke: #494936" d="M 766.199 435.702 L 775.716,435.702 L 775.716,442.525 L 766.199,442.525 L 766.199,435.702"/>
    <path style="fill: #b7b79d" d="M 774.202 433.795 L 766.573,437.59 L 760.477,436.45 L 762.758,432.674 L 774.202,433.795z"/>
    <path style="fill: none; fill-opacity:0; stroke-width: 0.38; stroke: #494936" d="M 774.202 433.795 L 766.573,437.59 L 760.477,436.45 L 762.758,432.674 L 774.202,433.795"/>
    <path style="fill: #dbdbce" d="M 782.972 435.289 L 789.087,437.983 L 771.154,439.124 L 766.573,437.59 L 773.828,433.795 L 782.972,435.289z"/>
    <path style="fill: none; fill-opacity:0; stroke-width: 0.38; stroke: #494936" d="M 782.972 435.289 L 789.087,437.983 L 771.154,439.124 L 766.573,437.59 L 773.828,433.795 L 782.972,435.289"/>
    <path style="fill: #dbdbce" d="M 785.253 443.273 L 769.975,440.618 L 765.432,441.778 L 773.042,445.966 L 785.253,443.273z"/>
    <path style="fill: none; fill-opacity:0; stroke-width: 0.38; stroke: #494936" d="M 785.253 443.273 L 769.975,440.618 L 765.432,441.778 L 773.042,445.966 L 785.253,443.273"/>
    <path style="fill: #b7b79d" d="M 790.601 440.618 L 790.601,439.124 L 789.087,437.983 L 771.154,439.124 L 769.975,440.618 L 785.253,443.273 L 790.601,440.618z"/>
    <path style="fill: none; fill-opacity:0; stroke-width: 0.38; stroke: #494936" d="M 790.601 440.618 L 790.601,439.124 L 789.087,437.983 L 771.154,439.124 L 769.975,440.618 L 785.253,443.273 L 790.601,440.618"/>
    <path style="fill: #b7b79d" d="M 763.505 446.714 L 760.084,442.152 L 766.199,441.778 L 773.042,445.966 L 763.505,446.714z"/>
    <path style="fill: none; fill-opacity:0; stroke-width: 0.38; stroke: #494936" d="M 763.505 446.714 L 760.084,442.152 L 766.199,441.778 L 773.042,445.966 L 763.505,446.714"/>
    <path style="fill: #7a7a5a" d="M 760.084 442.152 L 763.505,446.714 L 763.505,555.352 L 760.084,550.004 L 760.084,442.152z"/>
    <path style="fill: none; fill-opacity:0; stroke-width: 0.38; stroke: #494936" d="M 760.084 442.152 L 763.505,446.714 L 763.505,555.352 L 760.084,550.004 L 760.084,442.152"/>
  </g>
  <g>
    <path style="fill: #b7b79d" d="M 155.58 448.398 L 155.58,562.11 L 222.79,562.11 L 222.79,448.398 L 155.58,448.398z"/>
    <path style="fill: none; fill-opacity:0; stroke-width: 0.02; stroke: #494936" d="M 155.58 448.398 L 155.58,562.11 L 222.79,562.11 L 222.79,448.398 L 155.58,448.398"/>
    <path style="fill: #c9c9b6" d="M 155.58 448.398 L 164.687,439.25 L 231.877,439.25 L 222.79,448.398 L 155.58,448.398z"/>
    <path style="fill: none; fill-opacity:0; stroke-width: 0.02; stroke: #494936" d="M 155.58 448.398 L 164.687,439.25 L 231.435,439.25"/>
    <path style="fill: none; fill-opacity:0; stroke-width: 0.02; stroke: #494936" d="M 231.435 439.712 L 222.79,448.398 L 155.58,448.398"/>
    <path style="fill: #c9c9b6" d="M 159.721 455.012 L 190.421,455.012 L 190.421,469.93 L 159.721,469.93 L 159.721,455.012z"/>
    <path style="fill: none; fill-opacity:0; stroke-width: 0.02; stroke: #626248" d="M 159.721 455.012 L 190.401,455.012 L 190.401,469.91 L 159.721,469.91 L 159.721,455.012"/>
    <path style="fill: none; fill-opacity:0; stroke-width: 0.6; stroke: #ecece7" d="M 163.863 462.491 L 185.395,462.491"/>
    <path style="fill: #7a7a5a" d="M 222.79 562.11 L 231.877,552.942 L 231.877,439.25 L 222.79,448.398 L 222.79,562.11z"/>
    <path style="fill: none; fill-opacity:0; stroke-width: 0.02; stroke: #494936" d="M 222.79 562.11 L 231.435,553.404"/>
    <path style="fill: none; fill-opacity:0; stroke-width: 0.02; stroke: #494936" d="M 231.435 439.712 L 222.79,448.398 L 222.79,562.11"/>
    <path style="fill: none; fill-opacity:0; stroke-width: 0.6; stroke: #ecece7" d="M 156.424 554.611 L 222.77,554.611"/>
    <path style="fill: none; fill-opacity:0; stroke-width: 0.6; stroke: #000000" d="M 156.424 494.035 L 222.77,494.035"/>
    <path style="fill: none; fill-opacity:0; stroke-width: 0.6; stroke: #494936" d="M 155.58 553.786 L 222.709,553.786"/>
    <path style="fill: none; fill-opacity:0; stroke-width: 0.6; stroke: #000000" d="M 155.58 493.191 L 222.709,493.191"/>
    <path style="fill: none; fill-opacity:0; stroke-width: 0.02; stroke: #ecece7" d="M 159.721 469.126 L 159.721,455.012 L 189.577,455.012"/>
  </g>
  <text style="fill: #000000;text-anchor:start;font-size:20.3197;font-family:sanserif;font-style:normal;font-weight:normal" x="631" y="614.25">
    <tspan x="631" y="614.25">Computer : Colosse</tspan>
    <tspan x="631" y="639.65">Software : SCHNAPS</tspan>
    <tspan x="631" y="665.05">Job : Simulation</tspan>
  </text>
  <text style="fill: #000000;text-anchor:start;font-size:12.7998;font-family:sanserif;font-style:normal;font-weight:normal" x="507" y="480.25">
    <tspan x="507" y="480.25"></tspan>
  </text>
  <text style="fill: #000000;text-anchor:start;font-size:20.3197;font-family:sanserif;font-style:normal;font-weight:normal" x="343.4" y="45.45">
    <tspan x="343.4" y="45.45">Computer : User's Computer</tspan>
    <tspan x="343.4" y="70.85">Software : LSD Input GUI, LSD Output GUI</tspan>
    <tspan x="343.4" y="96.25">Job : Creating Configuration Files</tspan>
    <tspan x="343.4" y="121.65">        Analyzing Results</tspan>
  </text>
  <text style="fill: #000000;text-anchor:start;font-size:20.3197;font-family:sanserif;font-style:normal;font-weight:normal" x="54.8" y="612">
    <tspan x="54.8" y="612">Computer : LSD Server</tspan>
    <tspan x="54.8" y="637.4">Software : mySQL Database</tspan>
    <tspan x="54.8" y="662.8">Job : Results Storage </tspan>
    <tspan x="54.8" y="688.2">        Simulation Benchmark</tspan>
  </text>
  <g>
    <line style="fill: none; fill-opacity:0; stroke-width: 2; stroke: #000000" x1="567" y1="254.25" x2="703.305" y2="398.181"/>
    <polygon style="fill: #000000" points="708.462,403.626 697.956,399.804 703.305,398.181 705.217,392.928 "/>
    <polygon style="fill: none; fill-opacity:0; stroke-width: 2; stroke: #000000" points="708.462,403.626 697.956,399.804 703.305,398.181 705.217,392.928 "/>
  </g>
  <g>
    <line style="fill: none; fill-opacity:0; stroke-width: 2; stroke: #000000" x1="243" y1="413.25" x2="401.301" y2="246.315"/>
    <polygon style="fill: #000000" points="406.461,240.873 403.209,251.569 401.301,246.315 395.952,244.688 "/>
    <polygon style="fill: none; fill-opacity:0; stroke-width: 2; stroke: #000000" points="406.461,240.873 403.209,251.569 401.301,246.315 395.952,244.688 "/>
  </g>
  <g>
    <line style="fill: none; fill-opacity:0; stroke-width: 2; stroke: #000000" x1="595" y1="525.25" x2="334.736" y2="524.286"/>
    <polygon style="fill: #000000" points="327.236,524.258 337.255,519.295 334.736,524.286 337.217,529.295 "/>
    <polygon style="fill: none; fill-opacity:0; stroke-width: 2; stroke: #000000" points="327.236,524.258 337.255,519.295 334.736,524.286 337.217,529.295 "/>
  </g>
  <text style="fill: #000000;text-anchor:start;font-size:12.7998;font-family:sanserif;font-style:normal;font-weight:normal" x="643" y="312">
    <tspan x="643" y="312">XML configuration files</tspan>
  </text>
  <text style="fill: #000000;text-anchor:start;font-size:12.7998;font-family:sanserif;font-style:normal;font-weight:normal" x="183.4" y="294.45">
    <tspan x="183.4" y="294.45">.csv result files</tspan>
  </text>
  <text style="fill: #000000;text-anchor:start;font-size:12.7998;font-family:sanserif;font-style:normal;font-weight:normal" x="377.4" y="561.45">
    <tspan x="377.4" y="561.45">.gz(compressed.txt result files)</tspan>
  </text>
</svg>
